<svg xmlns="http://www.w3.org/2000/svg" width="48" height="48" viewBox="0 0 48 48"><g fill="#5851db"><path d="M32.457 15.543c-.975-.975-2.242-1.25-3.608-1.31-1.266-.06-1.646-.07-4.85-.07s-3.584.01-4.85.07c-1.365.06-2.632.335-3.607 1.31-.975.975-1.25 2.242-1.31 3.608-.06 1.266-.07 1.646-.07 4.85s.01 3.584.07 4.85c.06 1.365.335 2.632 1.31 3.607s2.242 1.25 3.608 1.31c1.266.06 1.646.07 4.85.07s3.584-.01 4.85-.07c1.365-.06 2.632-.335 3.607-1.31s1.25-2.242 1.31-3.608c.06-1.266.07-1.646.07-4.85s-.01-3.584-.07-4.85c-.06-1.365-.335-2.632-1.31-3.607zM24 30.163c-3.403 0-6.162-2.76-6.162-6.163s2.76-6.162 6.162-6.162 6.162 2.76 6.162 6.162-2.76 6.162-6.162 6.162zm6.406-11.13c-.795 0-1.44-.644-1.44-1.44s.645-1.44 1.44-1.44 1.44.646 1.44 1.44-.645 1.44-1.44 1.44z"/><circle cx="24" cy="24" r="4"/><path d="M42 0H6C2.686 0 0 2.686 0 6v36c0 3.314 2.686 6 6 6h36c3.314 0 6-2.686 6-6V6c0-3.314-2.686-6-6-6zm-6.072 28.948c-.09 1.95-.567 3.664-1.942 5.038-1.375 1.375-3.09 1.853-5.038 1.942-1.28.058-1.69.072-4.948.072s-3.668-.014-4.948-.072c-1.95-.09-3.664-.567-5.038-1.942-1.375-1.375-1.853-3.09-1.942-5.038C12.014 27.668 12 27.258 12 24s.014-3.668.072-4.948c.09-1.95.567-3.664 1.942-5.038 1.375-1.375 3.088-1.853 5.038-1.942C20.332 12.014 20.742 12 24 12s3.668.014 4.948.072c1.95.09 3.664.567 5.038 1.942 1.375 1.375 1.853 3.088 1.942 5.038.058 1.28.072 1.69.072 4.948s-.014 3.668-.072 4.948z"/></g></svg>
