<svg width="22" height="22" viewBox="0 0 60 60" xmlns="http://www.w3.org/2000/svg"><g fill-rule="nonzero" fill="none"><path d="M22 23h-3v2.6l.2 3.5v13.3c0 .8 0 1.7.5 2.2.2.4 1 .2 1.8.2h.5c.6 0 1.2 0 1.6-.5.3-.3 0-1.3 0-2V40v-1.4c0-1.3 0-2.5-.2-3.8v-1.4-4.7c0-1 .2-1.8.3-2.7v-.4H26c0-1 0-1.7.2-2.5H22z" fill="#1DB9A7"/><path d="M23 34.4v-1l-1.5 1c-.2 0-.4.2-.6.4l-.8.5-1 .6v1.7l1.5-1 .3-.2.6-.4h.2c0-.2.2-.3.2-.3.2-.2.3-.2 0 0l1-.8V35v-.6z" fill="#17A191"/><path d="M50.4 15.6l-5 3-.6.5v.3l.6.8c3.8-3.5 11.5-7 11.5-7l-.2-.2h-.5l-6 2.8z" fill="#ABBE37"/><path d="M4.3 47.7c1.3-1 2.5-2 3.8-2.8l4-3-.2.2 1-.8 1.2-.8c.2 0 .3 0 .3-.2l2-1.4 1.3-1 .7-.5 1-.7c.2-.3 1.2-.8 1.4-1l.3-.2.6-.4h.2c0-.2.2-.3.2-.3.2-.2.3-.2 0 0 .4-.3 1-.8 2-1.3l2.7-2 2.8-1.8.6-.5c.3 0 .5-.2.6-.3l.8-.5c-.2 0-.6.4-.8.5l.7-.5c.2 0 1-.5 1.2-.7l.3-.2 6.4-4 .2-.2.7-.4c1-.5 1.4-1 1.8-1 0 0-.2 0 0 0l.7-.5c.2 0 1-.6.7-.5 0 0 .3 0 .4-.2 0 0 .2 0 0 0 .2 0 .4-.3.6-.4l-.3.2 1.5-1-.3.2 1-.6-.4.3s.2 0 .3-.2c.2 0 .3 0 .4-.2l.4-.2-.5-1H46L43 19.8l-.4.2h-.4l-.7.6-1.3.8-1.7 1c.3-.2.2 0 0 0l-7 4.6-2.2 1.3-1.5 1-1.6 1-1.6 1-1.4.8-2 1.4-.6.5-.7.4-1.2 1V35c0 .2-.6.5-1.2 1-.3 0-.6.3-1 .6l-1 .7-2.2 1.4c-.3 0-.6.3-.8.5l-.5.4.2-.2-1.5 1-1 .8-2 1.6c-.6.4-1.7 1-2 1.4l-4 2.7-.8.5H.7V49c.2.4.6.7 1.6.2l.3-.2 1.6-1.3z" fill="#00625A"/><path d="M59.3 11H59c0-.2-.3-.2-.5-.2-.7 0-1.4.3-2 0H56c-.3-.2-.6-.6-1-.4-.7.4-1.2.6-1.8.6H53c-1-.5-1.7.7-2.6 1-.5 0-1 0-1.5.2h-.5c-.6.3-1.2.5-1.6 1.2-.6.8-1 1.2-1.8 1.5H45c-.3.2-.6.4-.7.8v.4c-.2.3-.2.5-.2.8v.3c0 .6.2 1.3.5 1.8 0 .2 0 .3.2.4.2.4.5.8 1 1l.5.4c.8.4 1.6.5 2.3.3h.7c1.2-.5 2.7-.2 3.7-1 0 0 0-.2.3-.3l.7-.7.3-.4c.7-.7 2-.6 2.3-1.5.2-.6 0-1.5 1-2 0 0 .2 0 .3-.2.3-.4.5-1 .5-1.6V13c0-.6.5-1 .8-1.5v-.2-.3z" fill="#1DB9A7"/><path d="M57.5 12.5v-.2c-3.5 1.2-6.3 2.6-8.7 4-.5.2-1 .4-1.3.7-2.5 1.5-4.2 3.3-5.8 5.5.3 0 .7.2 1 .4.8-2 2.5-3.6 4-4.8 0 0 3.3-2.8 10.8-5.7z" fill="#17A191"/><path d="M32.5 28l-.4-1.3-.3.2-2 1.2c-.3 0-.6.3-.8.5 0 .5 0 1 .2 1.5l.4-.3.6-.5c.2 0 .4-.2.5-.3l.8-.5c-.2 0-.6.4-.8.5l.7-.5 1-.6z" fill="#005A53"/><path d="M34 30.8l-.4-1c0-.5-.3-1-.4-1.5l-1-3s0-.2-.2-.3c-.3-.7-1-1.2-1.6-1.5-.3-.2-.7-.3-1-.3H25.7c-.4.8-.5 1.7-.2 2.3H27l1 .3.3.4.3.5c.7 1.4.7 3.7 1.4 5.2v.3c0 .4-.2.7-.5 1l-1 .6-.4.2-.4.3c-1 .5-2.3 1-3 1.7-.4.2 0 1.6.3 1.7 1.3.3 2.8-.7 4-1.3.3 0 .5-.2.7-.3.3 0 .6-.3 1-.4l.6-.3h.3c.3-.3.7-.4 1-.6 1-1.5 2-2.7 1.3-4.2z" fill="#1DB9A7"/></g></svg>
