<svg id="Layer_1" xmlns="http://www.w3.org/2000/svg" viewBox="0 0 118.447 27.184"><style>.st0{fill:#1DB9A7;} .st1{fill:#00625A;} .st2{fill:#ABBE37;} .st3{fill:#17A191;} .st4{fill:#B2B0A6;}</style><path class="st0" d="M20.44 8.46c-1.1 0-2.2-.06-3.33-.04h-.82l-1.6.06c0 .34 0 .75.02 1.24 0 .24 0 .5.02.8l.1 2.9v.88l.02.4v.4c.1 1.05.12 2.1.08 3.15 0 .15 0 .3-.02.45-.04.52-.04 1-.05 1.5 0 .13 0 .25-.02.38l-.03.92v.47l-.02.48-.04.8-.02.4-.03.36c-.02.15-.02.28 0 .4.05.65.1 1.36.4 1.8.18.33.9.15 1.44.17h.37c.5-.03.97-.1 1.3-.38.23-.24.04-1.1 0-1.67v-.28c0-.28 0-.58-.03-.86 0-.27 0-.53-.02-.78 0-.25-.04-.5-.04-.77v-.44c-.02-1.02-.02-2.03-.1-3.08v-.34-.84c0-1 .02-1.95.05-2.88 0-.3.02-.62.04-.92 0-.75.06-1.47.14-2.2.02-.16.03-.3 0-.44l2.22-.1c.5-.43.33-1.2-.02-1.93zm8.43 17.78l-.25.05-.23.02c-.5.07-.95.1-1.42.06-.1-.03-.17-.07-.2-.14-.22-.16-.14-.7-.07-1.06l.05-.26c.42-2.6.78-4.58 1.1-5.9.36-1.53.78-2.96 1.27-4.27l.3-.77c.3-.73.65-1.5 1.18-2.02.2-.2.73-.12 1.14-.2l1.17-.07 1.1-.08h.18c.33-.03.7 0 .9.3.04.08-.04.2 0 .32.16.48.8.64.87 1.16l.08.25.53 2.02.24.9.4 1.7.2.76c.3 1.28.58 2.53.67 3.87.02.26.05.62.1 1l.07.9.06.54c0 .06 0 .1.02.17v.18c.2.56-.34.72-.84.7h-1.05l-.24-.03c-.08 0-.15-.02-.2-.03-.54.08-.45-.44-.52-.8l-.03-.35-.03-.4-.08-1.27c-.04-.5.08-1.25-.16-1.38l-.37-.1c-.27-.03-.54 0-.8.03l-.4.06c-.74.2-1.46.3-2.22.26h-.46c-.16 0-.3.02-.46.06-.14.03-.28.06-.4.12-.1.07-.17.15-.18.27-.16.98-.6 1.87-.82 2.78l-.1.28c0 .08-.04.17-.05.26l-.03.12zm6-6.87c-.04-.3-.07-.68-.17-1l-.08-.38-.37-1.45c-.3-1.1-.55-1.9-.74-2.36-.06-.17-.12-.3-.17-.37-.55.06-1.28-.1-1.52.2-.6.63-.68 1.72-.9 2.62l-.1.4c-.1.4-.18.77-.24 1.12l-.13 1.08-.1.54-.1.75.33-.04c.2 0 .5-.03.85-.07.18 0 .36-.03.54-.04.88-.34 2.65.23 2.94-.7v-.33zm5 7.02v-.8l.02-.2v-.2-.2c0-.8.05-1.55.06-2.32v-.26c0-.1.02-.2.04-.32 0-.03 0-.07.02-.1.03-.3 0-.6.07-.9 0-.07 0-.13.02-.2l.02-.18c.14-.87-.1-1.76-.2-2.66l-.03-.13v-.3l-.03-1.37-.08-3.13v-.26-.24c-.05-.47.2-1 .7-1.02h.3l1.6-.14.46-.02c.64-.05.44.68.48 1.1l-.02.2-.15 1.35-.06.48c-.04.73-.2 1.45-.17 2.2l-.05.6c-.2 1.68-.2 3.33-.3 5.04l-.07.48c-.05.47-.04.88.36.96h.28c.45.04 1.1.1 1.74.13.22 0 .44.02.66.04 1-.02 2.44.06 1.97 1.4 0 .12-.03.23-.04.3 0 .1-.02.13-.02.13l-.16.02h-.18c-1.06.05-2.07.17-3.12.23l-.5.04-2.63.2h-.3c-.2.03-.36.03-.56.02h-.12zm16.58-6.34c-.27.03-.6.07-.9.08l-.92.07-2.9.2v.57c0 1.9.1 2.98.34 3.26.2.25 1.6.36 4.2.34h.2c.47-.08.47.28.44.63.02.1 0 .22 0 .33-.04.3-.12.56-.5.55-.13 0-.27.02-.42.04-2.23.18-4 .27-5.33.27-.9 0-1.4-.07-1.48-.2-.28-.35-.42-3.5-.42-9.4 0-2.9.14-4.48.4-4.76.27-.27 2.4-.4 6.38-.4h.53c.1 0 .18 0 .27.02.1 0 .2.02.27.03.67-.08.75.28.66.9 0 .1 0 .2-.03.3-.04.17-.1.36-.2.53-.04.08-.18.07-.33.05-.16-.02-.34-.06-.5-.03h-.26c-2.17.05-3.4.22-3.68.53-.27.3-.4 1.64-.44 4.03l.3.4 2.8.15c.15 0 .3 0 .46.02l.22.03c.07 0 .14 0 .2.02.2-.05.38-.04.5.02.4.2.28.68.2 1.05l-.05.36zm7.75 6.34c-1.8 0-2.9-.16-3.3-.48-1.3-1-2.15-2.54-2.6-4.62-.24-1.24-.36-3.06-.36-5.45 0-.25 0-.4.02-.42.38-1.56 1.12-2.66 2.23-3.28.93-.55 2.25-.82 3.96-.82 1.97 0 3.42.34 4.34 1 .63.45 1.05 1.08 1.27 1.9.17.54.25 1.32.25 2.3 0 .78-.04 1.73-.13 2.85-.06.74-.38 1.8-.95 3.22-.62 1.5-1.18 2.43-1.7 2.8-.15.12-.66.32-1.5.6-.82.26-1.34.4-1.55.4zm-1.38-12.8c-.27 0-.63.24-1.1.7-.46.46-.7.83-.74 1.12-.1 1.06-.15 2.47-.15 4.22 0 1.77.43 3.1 1.28 4 .23.24.95.36 2.16.36.7 0 1.22-.06 1.52-.2.24-.08.52-.85.83-2.28.24-1.05.4-1.9.48-2.6.1-.73.14-1.4.14-2 0-1.66-.3-2.62-.94-2.9-.15-.1-.7-.2-1.67-.3-.86-.07-1.46-.1-1.78-.1z"/><path class="st1" d="M80.97 25.74c-.25.18-.53.08-.8.1l-.24.02h-.22l-.4.04c-.82.02-1.67.02-2.5.17l-.43.04c-.14.03-.28.04-.43.04l-.5.04c-.8.06-1.58.1-2.16.16-.12 0-.23 0-.33.02-.75.24-.7-.6-.8-1.1v-.4l.08-2.7.02-2.3c0-.78 0-1.7-.03-2.78v-.4c-.1-1.3.1-2.52.1-3.82 0-.86-.3-2.1-.25-3v-.3c0-.3 0-.6-.04-.92.08 0 .17 0 .28-.02.1 0 .2 0 .32-.02l1.34-.1.98-.1c.32-.05.54 0 .7.14.15.13.25.34.3.58-.27 3.8-.77 7.57-.86 11.35l-.02.87c.05.7-.2 1.78.17 2.14.73.6 1.93-.24 3.04-.5.23-.04.47-.06.7-.05l.17.02c.74.06 1.5.53 1.67 1.25.03.05.04.1.06.17l.07.2c.03.1.05.25.05.4v.76zm8.97-5.78l-4.87.34v.57c-.02 1.93.1 3.04.34 3.32.18.2 1.1.3 2.8.33h1.1c.33 0 .66-.08 1-.04-.26.5.32 1.43-.25 1.56l-.22.02c-2.48.2-4.44.32-5.87.32-.92 0-1.42-.06-1.5-.2-.3-.36-.43-3.56-.43-9.58 0-1.47.03-2.62.1-3.42 0-.12.02-.23.04-.33-.06-1.66 1.87-1.16 3-1.46h.2c1.02-.04 2.28-.06 3.8-.06h.95c.58-.13.7.5.6.88 0 .1-.02.17-.05.25 0 .13-.02.25-.05.35-.06.2-.17.36-.4.37h-.3c-2.57.02-4 .2-4.32.54-.05.05-.1.13-.13.24-.04.1-.07.25-.1.42-.1.8-.18 1.54-.2 2.3l-.02 1.15.32.4 1.84.1c.34 0 .68.03 1 .05.2 0 .4 0 .62.02l.6.05c.6-.1.6.22.52.75l-.05.35-.07.4zm3.92 6.13c-.26.05-.47.05-.7.12l-.23.03c-.07 0-.15 0-.23.02-.33 0-.74.13-.9-.12-.1-.16-.2-.5-.14-.77l.03-.24.03-.25c.32-2 .6-3.6.86-4.88 0-.1.03-.2.05-.28.33-1.1.8-2.18.84-3.32l.1-.36c.34-1.1.7-2.1 1.12-3.05l.15-.32c.2-.46.37-1 .7-1.2.37-.2.9-.17 1.4-.17l.53-.02.65-.04h.22c.73-.1 1.56-.2 2.13.07.33.18.4.88.55 1.4l.06.24.26.87.1.44.2.7.17.68c.24.75.4 1.53.58 2.32l.15.6.06.28.07.28c0 1.1.22 2.2.6 3.22l.03.32c.07.56.1 1.12.14 1.68 0 .1.02.18.03.26l.02.26c0 .53.1 1.02.13 1.56-.33 0-.65-.04-.97-.1-.1 0-.2 0-.3-.03-.5-.08-1.1-.04-1.45-.36-.23-.24-.27-.73-.32-1.17l-.02-.4-.03-.4c0-.1 0-.2-.02-.28v-.27c-.12-.47 0-1.2-.33-1.38-.5-.3-1.27-.16-1.9 0h-.3c-.28 0-.57.03-.87.05h-.3c-1.14-.17-2.3.32-2.36 1.66l-.03.28c0 .1-.03.18-.05.27l-.06.26c-.05.16-.08.3-.1.44l-.1.38c-.05.18-.1.38-.17.56l-.06.2zm6.17-7.02c-.02-.25-.02-.5-.1-.76l-.13-.58c-.1-.42-.23-.94-.4-1.54-.4-1.5-.72-2.44-.93-2.78l-1.68.15c-.57 1.66-.95 3.08-1.16 4.27l-.13 1.1-.2 1.33 1.83-.17 1-.1c.56-.18 1.6.15 1.9-.35v-.57zm8 7.05c-.3.13-.63.1-.96.17l-.35.04-.23.02c-.92.2-1.74-.34-1.55-1.3v-.22c.1-2.5.16-4.73.16-6.7 0-.74 0-1.85-.07-3.32l-.05-1.58c0-.1 0-.23-.02-.33 0-.3-.06-.66-.04-.92 0-.13.05-.24.13-.3.4-.17.87-.2 1.32-.2l.68.04h3.72c1.07-.02 2.18.2 2.93 1.04l.2.4c.2.5.45 1.24.76 2.23.4 1.4.6 2.3.6 2.67l-.12.3c-.4.73-.6 1.76-1.52 1.94l-.72.33c-.85.4-1.58.7-2.2.9l-.18.08c-.67.43-2 .52-1.76-.73 0-.07.03-.13.06-.18.16-.36.6-.57 1.06-.83l.2-.12c.2-.12.38-.24.6-.33l.24-.14.5-.3.5-.3c.32-.2.7-.48.5-.9l-.1-.53c-.17-.8-.5-1.94-1-3.43l-.75-.32-2.48.08c-.16 1.56-.23 3.3-.23 5.23v.49c0 .62.1 1.28.07 1.9V22l.07 2.16.02.24c.03.48.07.94 0 1.44v.27z"/><path class="st2" d="M38.56 3.73l-3.8 2.03-.53.45.06.13c.08.23.2.43.37.6 2.98-2.56 8.9-5 8.9-5l-.04-.1h-.38l-4.6 1.9z"/><path class="st1" d="M1.4 26.95zm1.3-.84c.98-.66 1.96-1.3 2.95-1.94.98-.64 1.97-1.3 2.98-1.94.05-.02 0 0-.06.06l.86-.58.83-.55c.17-.1.2-.1.27-.12-.06.02.7-.48 1.5-.98l1.1-.7.52-.33v-.06c.6-.38.2-.07.77-.42.18-.2.93-.58 1.1-.73 0 .02.28-.15.27-.12.06-.08.27-.2.44-.3.06-.05-.05.02-.1.04l.2-.13.2-.14c.16-.08.2-.1.03.02l1.4-.84c.65-.38 1.4-.85 2.18-1.3l2.2-1.28c.15-.1.3-.2.46-.27l.4-.25.6-.34c-.15.07-.5.3-.65.33.3-.2.45-.25.57-.35.15 0 .67-.37.93-.45l.07-.08.16-.07c.66-.4 4.94-2.83 5-2.86l.14-.08.55-.3c.67-.38.97-.6 1.35-.8-.07.04-.17.08-.02 0 .04 0 .47-.3.56-.3.18-.1.74-.42.54-.35l.3-.16c.1-.05.16-.07 0 .02l.47-.25-.22.12c.57-.32.9-.46 1.26-.7l-.2.1c.33-.18.62-.34.77-.38l-.35.2.27-.15.23-.14c.1-.05.2-.1.28-.16l-.3-.9h-.02l-.28.16c-.72.4-1.44.77-2.1 1.12-.12.06-.22.1-.32.17-.1.06-.2.1-.3.17l-.58.3-1 .57c-.4.18-.9.47-1.3.67.2-.1.14-.05-.03.04-1.2.67-4.28 2.46-5.48 3.14l-1.65.93-1.14.65-1.22.7-1.22.68-1.1.64-1.56.9-.5.3-.55.34c-.36.2-.73.43-1.04.63l.07-.04-1 .6-.78.47c-.3.16-.58.34-.87.5l-1.63 1-.65.4-.42.26.1-.07c-.66.45-.6.34-1.15.67.1 0-.47.4-.7.53v-.02l-1.6 1.1v-.04c-.45.33-1.33.86-1.66 1.07-.77.47-1.98 1.17-2.97 1.86l-.7.32-.1.07-.04.24c0 .15 0 .35.04.52.1.34.37.6 1.1.27v.04l.25-.18 1.3-.8z"/><path class="st0" d="M45.48.57L45.35.5c-.14-.08-.3-.1-.45-.1-.54.04-1.07.16-1.6.03l-.2-.06c-.32-.17-.53-.45-.84-.35-.5.3-.87.4-1.3.36-.07 0-.16 0-.25-.03-.7-.4-1.24.46-1.9.57-.38.04-.76.08-1.13.16-.08 0-.18.04-.27.06-.48.15-.9.3-1.22.74-.4.6-.78.85-1.35 1.1-.07.02-.14.05-.2.1-.2.1-.36.26-.46.54l-.1.28c-.04.2-.07.4-.07.6 0 .08-.02.15-.03.23-.03.48.04.96.22 1.38.02.1.05.17.1.23.12.35.35.62.63.84.14.1.3.2.46.27.6.36 1.15.4 1.68.3.17-.05.35-.1.52-.17.92-.25 2.02 0 2.8-.55.1-.07.2-.15.3-.25l.5-.54c.1-.08.18-.17.26-.26.58-.5 1.42-.4 1.8-1 .2-.53.1-1.2.84-1.45.1-.06.18-.13.26-.2.3-.28.5-.66.48-1.16 0-.07.02-.13.04-.2.12-.4.44-.72.66-1.1.02-.06.02-.12-.02-.18l-.04-.1z"/><path class="st3" d="M44.02 1.66l-.05-.16c-2.58.75-4.78 1.7-6.58 2.63-.38.18-.72.37-1.05.56-1.9 1.04-3.3 2.3-4.56 3.9.24.03.52.17.7.34.7-1.4 2-2.52 3.3-3.4 0 0 2.53-2.02 8.22-3.88z"/><path class="st4" d="M34.3 6.9c.05.16-.03.16-.07.14-.44-.3-.46-.56-.62-1-.03-.17.2.02.3.14.2.25.05.15.22.42l.17.3zm-.4.22c.06.08-.02.12 0 .2-.38-.23-.43-.38-.6-.83-.05-.12-.16-.43 0-.3.3.25.22.3.43.62l.17.3zm-.36.2c.1.12.03.25 0 .23-.47-.33-.65-.6-.62-1.12.3.23.23.28.45.6l.17.3z"/><path class="st0" d="M26.9 14.86l-.25-.9c-.1-.34-.2-.72-.34-1.13-.3-1-.55-1.77-.77-2.36l-.13-.32c-.28-.6-.74-1-1.3-1.26-.28-.14-.58-.23-.9-.3-.3-.05-.63-.08-.95-.1l-.97-.03h-.84c.1.63.08 1.3.02 1.93l.87-.02c.3.04.58.12.8.28.25.16.44.4.56.72.1.22.15.46.18.72l.18.6.34 1.18.13.52c.14.27.23.56.28.84.1.56-.03 1.1-.4 1.52-.18.2-.44.36-.77.46-.14.1-.3.18-.43.26l-.45.23c-.9.44-1.88.78-2.5 1.42-.24.18.07 1.34.34 1.43 1.12.32 2.37-.5 3.48-.98l.53-.22c.26-.1.5-.22.77-.34.18-.1.36-.18.54-.26l.3-.12c.28-.18.6-.27.84-.4l.08-.16c.48-1 1.28-2.04.77-3.2z"/><path class="st1" d="M115.72 13.24v-1.42h-.58v-.2h1.4v.2h-.6v1.42h-.22zm1.05 0v-1.6h.35l.4 1.13.1.24.1-.25.4-1.12h.33v1.6h-.23V11.9l-.5 1.34h-.22l-.5-1.38v1.38h-.23z"/></svg>