<svg xmlns="http://www.w3.org/2000/svg" width="48" height="48" viewBox="0 0 48 48"><path fill="#cb2027" d="M42 0H6C2.7 0 0 2.7 0 6v36c0 3.3 2.7 6 6 6h36c3.3 0 6-2.7 6-6V6c0-3.3-2.7-6-6-6zM25.9 29.3c-1.5 0-2.9-.8-3.4-1.7 0 0-.8 3.2-1 3.8-.6 2.2-2.4 4.3-2.5 4.5-.1.1-.3.1-.3-.1 0-.3-.5-3 0-5.2.3-1.1 1.8-7.5 1.8-7.5s-.4-.9-.4-2.2c0-2 1.2-3.6 2.7-3.6 1.3 0 1.9.9 1.9 2.1 0 1.3-.8 3.1-1.2 4.9-.5 1.5.6 2.7 2 2.7 2.6 0 4.4-3.4 4.4-7.3 0-3-2-5.3-5.7-5.3-4.2 0-6.8 3.1-6.8 6.6 0 1.2.4 2 .9 2.7.3.3.3.4.2.8-.1.3-.2.9-.3 1.1-.1.3-.4.5-.7.3-1.9-.8-2.8-2.9-2.8-5.3 0-3.9 3.3-8.6 9.9-8.6 5.3 0 8.7 3.8 8.7 7.9 0 5.4-3 9.4-7.4 9.4z"/></svg>
