<svg xmlns="http://www.w3.org/2000/svg" width="32" height="32" viewBox="0 0 32 32"><g fill="none" stroke="#FFA155" stroke-width="2" stroke-miterlimit="10"><path data-color="color-2" stroke-linecap="square" d="M8 27h16M16 27v-5"/><path data-cap="butt" d="M9.3 6.6c-.5-.1-1-.2-1.5-.2C4.1 6.5 1 9.5 1 13.3S4.2 20 8 20v11h16V20c3.8 0 7-3 7-6.7s-3.1-6.8-6.8-6.8c-.5 0-1 .1-1.5.2"/><path stroke-linecap="square" d="M9.8 10.5c-.4-.8-.6-1.7-.6-2.7 0-3.7 3-6.8 6.8-6.8s6.8 3.1 6.8 6.8c0 1-.2 1.9-.6 2.7"/></g></svg>
