<svg xmlns="http://www.w3.org/2000/svg" width="48" height="48" viewBox="0 0 48 48"><g fill="#3ca7a5"><path data-color="color-2" d="M36 1H12c-.552 0-1 .448-1 1v7h26V2c0-.552-.448-1-1-1z"/><path d="M37 11H11C5.486 11 1 15.486 1 21v15c0 .553.448 1 1 1h7V25c0-.552.448-1 1-1h28c.552 0 1 .448 1 1v12h7c.552 0 1-.447 1-1V21c0-5.514-4.486-10-10-10zm-.5 8c-.828 0-1.5-.672-1.5-1.5s.672-1.5 1.5-1.5 1.5.672 1.5 1.5-.672 1.5-1.5 1.5z"/><path data-color="color-2" d="M11 26v20c0 .552.448 1 1 1h24c.552 0 1-.448 1-1V26H11zm19 15H18c-.552 0-1-.447-1-1s.448-1 1-1h12c.552 0 1 .447 1 1s-.448 1-1 1zm0-7H18c-.552 0-1-.447-1-1s.448-1 1-1h12c.552 0 1 .447 1 1s-.448 1-1 1z"/></g></svg>
