<svg xmlns="http://www.w3.org/2000/svg" width="48" height="48" viewBox="0 0 48 48"><path fill="#00aced" d="M42 0H6C2.7 0 0 2.7 0 6v36c0 3.3 2.7 6 6 6h36c3.3 0 6-2.7 6-6V6c0-3.3-2.7-6-6-6zm-8.5 19.1v.6c0 6.5-5 14-14 14-2.8 0-5.4-.8-7.5-2.2.4 0 .8.1 1.2.1 2.3 0 4.4-.8 6.1-2.1-2.2 0-4-1.5-4.6-3.4.3.1.6.1.9.1.4 0 .9-.1 1.3-.2-2.3-.5-3.9-2.4-3.9-4.8v-.1c.7.4 1.4.6 2.2.6-1.3-.9-2.2-2.4-2.2-4.1 0-.9.2-1.7.7-2.5 2.4 3 6.1 4.9 10.1 5.1-.1-.4-.1-.7-.1-1.1 0-2.7 2.2-4.9 4.9-4.9 1.4 0 2.7.6 3.6 1.6 1.1-.2 2.2-.6 3.1-1.2-.4 1.1-1.1 2.1-2.2 2.7 1-.1 1.9-.4 2.8-.8-.6 1-1.4 1.9-2.4 2.6z"/></svg>
