<svg class="nc-icon glyph" xmlns="http://www.w3.org/2000/svg" width="48" height="48" viewBox="0 0 48 48"><g fill="#b00"><path d="M42 0H6C2.7 0 0 2.7 0 6v36c0 3.3 2.7 6 6 6h36c3.3 0 6-2.7 6-6V6c0-3.3-2.7-6-6-6zm-6 24.9c0 1.9-.2 3.9-.2 3.9s-.2 1.7-1 2.4c-.9 1-1.9 1-2.4 1-3.4.2-8.4.2-8.4.2s-6.2-.1-8.2-.2c-.5-.1-1.7-.1-2.6-1-.7-.7-1-2.4-1-2.4s-.2-2-.2-3.9v-1.8c0-1.9.2-3.9.2-3.9s.2-1.7 1-2.4c.9-1 1.9-1 2.4-1 3.4-.2 8.4-.2 8.4-.2s5 0 8.4.2c.5.1 1.5.1 2.4 1 .7.7 1 2.4 1 2.4s.2 1.9.2 3.9v1.8z"/><path d="M21.5 27.1l6.5-3.3-6.5-3.4"/></g></svg>